<svg width="211" height="176" viewBox="0 0 211 176" fill="none" xmlns="http://www.w3.org/2000/svg">
<path d="M81.6887 113.761C87.8813 121.783 96.3462 126.179 105.198 126.179C114.05 126.179 122.514 121.783 128.707 113.761L144.233 93.6489L196.622 161.514L200.075 158.848C195.904 165.985 189.466 170.177 183.107 170.176L27.2871 170.138C20.9537 170.136 14.5435 165.975 10.3732 158.888L13.7742 161.514L66.1627 93.6489L81.6887 113.761ZM203.086 151.887L151.181 84.6482L201.406 19.5869C203.46 24.0021 204.701 29.3174 204.701 35.3052V140.583C204.701 144.692 204.117 148.485 203.086 151.887ZM194.618 10.3783L139.879 81.2874L120 107.04C115.613 112.722 110.212 115.179 105.198 115.179C100.184 115.179 94.7828 112.722 90.3961 107.04L70.5164 81.2874L15.7626 10.3587C19.2461 7.33947 23.286 5.67383 27.2946 5.67481L183.115 5.71269C187.113 5.71366 191.142 7.37242 194.618 10.3783ZM5.70093 35.2674C5.70093 29.2923 6.9363 23.987 8.98285 19.5776L59.2146 84.6482L7.32231 151.87C6.28767 148.462 5.70093 144.663 5.70093 140.545V35.2674Z" stroke="#e3e3e3" stroke-width="11"/>
</svg>
