<svg width="211" height="210" viewBox="0 0 211 210" fill="none" xmlns="http://www.w3.org/2000/svg">
<path fill-rule="evenodd" clip-rule="evenodd" d="M105.459 25.4044C61.7691 25.4044 26.4502 60.9836 26.4502 105C26.4502 140.185 49.0802 169.968 80.474 180.509C84.3991 181.301 85.8368 178.796 85.8368 176.689C85.8368 174.844 85.7074 168.519 85.7074 161.928C63.7291 166.673 59.1524 152.44 59.1524 152.44C55.6203 143.215 50.3869 140.844 50.3869 140.844C43.1935 135.968 50.9109 135.968 50.9109 135.968C58.8904 136.496 63.0774 144.139 63.0774 144.139C70.1399 156.262 81.5204 152.836 86.0988 150.727C86.7521 145.588 88.8465 142.03 91.0702 140.054C73.5409 138.208 55.0979 131.356 55.0979 100.782C55.0979 92.0847 58.2354 84.9689 63.2068 79.4347C62.4224 77.4584 59.6747 69.2865 63.9927 58.3492C63.9927 58.3492 70.6639 56.2403 85.7058 66.5195C92.1458 64.7771 98.7872 63.8908 105.459 63.8834C112.13 63.8834 118.93 64.8068 125.21 66.5195C140.254 56.2403 146.925 58.3492 146.925 58.3492C151.243 69.2865 148.493 77.4584 147.709 79.4347C152.811 84.9689 155.82 92.0847 155.82 100.782C155.82 131.356 137.377 138.076 119.716 140.054C122.595 142.557 125.079 147.3 125.079 154.813C125.079 165.486 124.95 174.053 124.95 176.687C124.95 178.796 126.389 181.301 130.312 180.51C161.706 169.966 184.336 140.185 184.336 105C184.466 60.9836 149.017 25.4044 105.459 25.4044Z" fill="#e3e3e3"/>
<path d="M46.5967 0.706374C38.8364 1.9173 29.8649 5.59492 23.3157 10.2144C21.7008 11.3804 18.516 14.1611 16.3179 16.3587C9.90333 22.8169 5.59701 29.9031 2.86071 38.6038C0.393555 46.5421 0.393555 46.3178 0.393555 104.98C0.393555 164.136 0.393555 163.508 3.04014 171.85C5.8213 180.416 10.1276 187.413 16.7665 194.006C25.0203 202.258 35.5169 207.55 47.0453 209.299C53.4599 210.241 157.395 210.241 163.809 209.254C187.404 205.711 206.11 186.964 209.653 163.329C210.64 156.96 210.64 53.0003 209.653 46.6318C206.11 22.9963 187.404 4.24945 163.809 0.706374C157.664 -0.235455 52.5627 -0.235455 46.5967 0.706374ZM167.039 10.4835C183.188 14.8787 195.434 27.1673 199.919 43.3129L201.13 47.7978V104.98V162.163L199.919 166.648C195.434 182.793 183.188 195.037 167.039 199.522L162.553 200.733H105.584H48.6153L44.6678 199.746C34.6646 197.19 25.9623 191.808 19.9065 184.363C14.8376 178.174 11.4285 170.729 10.0828 162.88C9.45475 159.158 9.36504 152.341 9.36504 104.98C9.36504 57.6198 9.45475 50.8027 10.0828 47.0802C13.3573 27.9746 28.1603 13.0847 47.2696 9.72103C50.275 9.18284 60.1436 9.09314 106.706 9.13799L162.553 9.22769L167.039 10.4835Z" fill="#e3e3e3"/>
</svg>
