<svg width="211" height="211" viewBox="0 0 211 211" fill="none" xmlns="http://www.w3.org/2000/svg">
<path d="M46.4849 0.818436C38.7245 2.02936 29.7531 5.70698 23.2039 10.3264C21.589 11.4925 18.4041 14.2731 16.2061 16.4707C9.79151 22.929 5.4852 30.0151 2.7489 38.7158C0.281738 46.6541 0.281738 46.4299 0.281738 105.092C0.281738 164.248 0.281738 163.62 2.92833 171.962C5.70949 180.528 10.0158 187.525 16.6547 194.118C24.9085 202.37 35.4051 207.662 46.9335 209.411C53.3481 210.353 157.283 210.353 163.697 209.366C187.292 205.823 205.998 187.076 209.542 163.441C210.528 157.072 210.528 53.1124 209.542 46.7438C205.998 23.1084 187.292 4.36151 163.697 0.818436C157.552 -0.123394 52.4509 -0.123394 46.4849 0.818436ZM166.927 10.5955C183.076 14.9907 195.322 27.2793 199.808 43.425L201.019 47.9099V105.092V162.275L199.808 166.76C195.322 182.905 183.076 195.149 166.927 199.634L162.441 200.845H105.472H48.5035L44.556 199.858C34.5528 197.302 25.8505 191.92 19.7947 184.475C14.7258 178.286 11.3167 170.841 9.97094 162.992C9.34294 159.27 9.25322 152.453 9.25322 105.092C9.25322 57.7318 9.34294 50.9148 9.97094 47.1923C13.2455 28.0866 28.0485 13.1968 47.1577 9.83308C50.1632 9.2949 60.0318 9.2052 106.594 9.25005L162.441 9.33975L166.927 10.5955Z" fill="white"/>
<path fill-rule="evenodd" clip-rule="evenodd" d="M176.481 52.2642C181.549 47.1966 181.549 38.9804 176.481 33.9128C171.413 28.8452 163.197 28.8452 158.13 33.9128C153.062 38.9804 153.062 47.1966 158.13 52.2642C163.197 57.3318 171.413 57.3318 176.481 52.2642Z" fill="white"/>
<path fill-rule="evenodd" clip-rule="evenodd" d="M133.51 133.341C149.1 117.75 149.1 92.4737 133.51 76.8836C117.92 61.2934 92.6434 61.2934 77.0532 76.8836C61.4631 92.4737 61.4631 117.75 77.0532 133.341C92.6434 148.931 117.92 148.931 133.51 133.341Z" stroke="white" stroke-width="19"/>
</svg>
