<svg width="211" height="210" viewBox="0 0 211 210" fill="none" xmlns="http://www.w3.org/2000/svg">
<path fill-rule="evenodd" clip-rule="evenodd" d="M50.2817 32.5293C44.8056 32.5293 39.8778 34.1661 36.229 37.2363C32.5802 40.3066 30.3403 44.8933 30.3403 49.8047C30.3403 59.1406 38.4382 66.4187 48.7388 67.1387L48.7583 67.1484C49.2491 67.3157 49.7632 67.4047 50.2817 67.4121C61.6468 67.4121 70.2232 59.4511 70.2232 49.8047C70.2222 49.7167 70.219 49.6288 70.2134 49.541C69.7046 40.0399 61.234 32.5293 50.2817 32.5293ZM60.2915 49.9316C59.9916 45.5209 57.2429 42.4121 50.2817 42.4121C46.7578 42.4121 44.1876 43.4477 42.5864 44.7949C40.9853 46.1422 40.2231 47.7161 40.2231 49.8047C40.2231 53.9818 43.3547 57.5293 50.2817 57.5293C57.5822 57.5293 60.2308 54.2129 60.2915 49.9316Z" fill="white"/>
<path fill-rule="evenodd" clip-rule="evenodd" d="M35.2817 72.4707C33.9557 72.4708 32.684 72.9977 31.7464 73.9353C30.8087 74.873 30.2819 76.1447 30.2817 77.4707V172.471C30.2819 173.797 30.8087 175.068 31.7464 176.006C32.684 176.944 33.9557 177.471 35.2817 177.471H65.2817C66.6078 177.471 67.8795 176.944 68.8171 176.006C69.7548 175.068 70.2816 173.797 70.2817 172.471V143.145V77.4707C70.2816 76.1447 69.7548 74.873 68.8171 73.9353C67.8795 72.9977 66.6078 72.4708 65.2817 72.4707H35.2817ZM60.2817 82.4707H40.2817V167.471H60.2817V143.145V82.4707Z" fill="white"/>
<path fill-rule="evenodd" clip-rule="evenodd" d="M80.2817 72.4707C78.9557 72.4708 77.684 72.9977 76.7464 73.9353C75.8087 74.873 75.2819 76.1447 75.2817 77.4707V172.471C75.2819 173.797 75.8087 175.068 76.7464 176.006C77.684 176.944 78.9557 177.471 80.2817 177.471H110.282C111.608 177.471 112.879 176.944 113.817 176.006C114.755 175.068 115.282 173.797 115.282 172.471V122.471C115.282 118.322 116.414 114.196 118.407 111.494C120.4 108.792 122.914 107.171 127.694 107.256C132.623 107.341 135.232 109.029 137.206 111.68C139.179 114.33 140.282 118.304 140.282 122.471V172.471C140.282 173.797 140.809 175.068 141.746 176.006C142.684 176.944 143.956 177.471 145.282 177.471H175.282C176.608 177.471 177.879 176.944 178.817 176.006C179.755 175.068 180.282 173.797 180.282 172.471V118.779C180.282 103.972 175.896 92.2424 168.377 84.3066C160.859 76.3709 150.403 72.4707 139.344 72.4707C128.834 72.4707 120.836 75.9951 115.282 79.5898V77.4707C115.282 76.1447 114.755 74.873 113.817 73.9353C112.879 72.9977 111.608 72.4708 110.282 72.4707H80.2817ZM105.282 82.4707H85.2817V167.471H105.282V122.471C105.282 116.619 106.7 110.527 110.36 105.566C114.019 100.606 120.259 97.1207 127.87 97.2559C135.441 97.3861 141.582 100.8 145.233 105.703C148.884 110.606 150.282 116.637 150.282 122.471V167.471H170.282V118.779C170.282 105.912 166.615 96.9797 161.122 91.1816C155.629 85.3836 148.111 82.4707 139.344 82.4707C122.128 82.4707 114.276 93.2812 114.276 93.2812C113.645 94.1186 112.767 94.7364 111.766 95.0474C110.764 95.3584 109.691 95.3468 108.696 95.0143C107.702 94.6818 106.837 94.0452 106.225 93.1944C105.612 92.3437 105.282 91.3219 105.282 90.2734V82.4707Z" fill="white"/>
<path d="M46.4849 0.706374C38.7245 1.9173 29.7531 5.59492 23.2039 10.2144C21.589 11.3804 18.4041 14.1611 16.2061 16.3587C9.79151 22.8169 5.4852 29.9031 2.7489 38.6038C0.281738 46.5421 0.281738 46.3178 0.281738 104.98C0.281738 164.136 0.281738 163.508 2.92833 171.85C5.70949 180.416 10.0158 187.413 16.6547 194.006C24.9085 202.258 35.4051 207.55 46.9335 209.299C53.3481 210.241 157.283 210.241 163.697 209.254C187.292 205.711 205.998 186.964 209.542 163.329C210.528 156.96 210.528 53.0003 209.542 46.6318C205.998 22.9963 187.292 4.24945 163.697 0.706374C157.552 -0.235455 52.4509 -0.235455 46.4849 0.706374ZM166.927 10.4835C183.076 14.8787 195.322 27.1673 199.808 43.3129L201.019 47.7978V104.98V162.163L199.808 166.648C195.322 182.793 183.076 195.037 166.927 199.522L162.441 200.733H105.472H48.5035L44.556 199.746C34.5528 197.19 25.8505 191.808 19.7947 184.363C14.7258 178.174 11.3167 170.729 9.97094 162.88C9.34294 159.158 9.25322 152.341 9.25322 104.98C9.25322 57.6198 9.34294 50.8027 9.97094 47.0802C13.2455 27.9746 28.0485 13.0847 47.1577 9.72103C50.1632 9.18284 60.0318 9.09314 106.594 9.13799L162.441 9.22769L166.927 10.4835Z" fill="white"/>
</svg>
